<svg width="60" height="90" viewBox="0 0 60 90" fill="none" xmlns="http://www.w3.org/2000/svg">
<path d="M31.0928 0.00147223C27.7341 0.0024484 24.5132 1.3351 22.1382 3.70648C19.7633 6.07785 18.4286 9.29387 18.4276 12.6475V18.3923H12.6741C11.0096 18.3909 9.36125 18.7173 7.82326 19.3527C6.28527 19.988 4.88786 20.92 3.71096 22.0952C2.53406 23.2703 1.60078 24.6658 0.964521 26.2014C0.328265 27.7371 0.00151629 29.3831 0.00297143 31.045V43.6865H18.4247V55.1762H12.6711C9.31143 55.1758 6.08915 56.5078 3.71294 58.8793C1.33673 61.2508 0.0011736 64.4674 0 67.822V89.67H12.677C14.3399 89.6694 15.9862 89.3416 17.5222 88.705C19.0581 88.0691 20.4535 87.137 21.6287 85.9624C22.8038 84.7877 23.7356 83.3933 24.3711 81.8588C25.0065 80.3242 25.3329 78.6803 25.3319 77.0201H25.3481V68.6733L25.3142 68.6777V15.5015L25.3422 15.5081V12.6497C25.3451 11.1255 25.9518 9.66438 27.0297 8.58518C28.1076 7.50598 29.5693 6.89638 31.0958 6.88937H53.0987V12.6497C53.094 14.1732 52.4853 15.6328 51.4058 16.7093C50.3262 17.7859 48.8636 18.3918 47.3378 18.3945H27.9461V25.2898H47.3348C50.6935 25.29 53.9148 23.958 56.2899 21.5869C58.6651 19.2157 59.9996 15.9996 60 12.646V0L31.0928 0.00147223ZM18.4276 36.7905H6.91608V31.0456C6.91861 29.5197 7.52594 28.0568 8.60545 26.9766C9.6849 25.8964 11.1488 25.2868 12.677 25.281H18.4306L18.4276 36.7905ZM18.4276 77.0264C18.4251 78.5496 17.8183 80.0103 16.74 81.0877C15.6617 82.1657 14.1997 82.7732 12.6741 82.777H6.91311V67.8258C6.9145 66.3013 7.52215 64.84 8.60242 63.7626C9.68276 62.6853 11.1472 62.0805 12.6741 62.081H18.4276V77.0264ZM27.9461 43.6858H42.4775V49.4365C42.4719 50.9597 41.8628 52.4188 40.7834 53.4951C39.7041 54.5715 38.242 55.1777 36.7165 55.1813H27.9461V62.081H36.7195C38.383 62.0819 40.0303 61.7554 41.5673 61.1202C43.1043 60.485 44.5009 59.5535 45.6771 58.3791C46.8533 57.2046 47.7862 55.8101 48.4224 54.2755C49.0586 52.7408 49.3856 51.096 49.3847 49.435H49.3906V36.789H27.9461V43.6858Z" fill="white"/>
</svg>
